# xmcd
#
# Track frame offsets:
#	150
#	1395
#	19717
#	38185
#	54385
#	73032
#	88817
#	104862
#	122785
#	140700
#	156685
#	177492
#	195380
#	214080
#	229452
#	247870
#	265475
#
# Disc length: 3791 seconds
#
# Revision: 5
# Processed by: cddbd v1.5.2PL0 Copyright (c) Steve Scherf et al.
# Submitted via: audiograbber 1.83.01
#
DISCID=020ecd11
DTITLE=Marques Houston - MH
DYEAR=2003
DGENRE=R&B
TTITLE0=Intro
TTITLE1=Clubbin (feat Joe Budden, Pied Piper)
TTITLE2=Pop That Booty (feat Jermaine "JD" Dupri)
TTITLE3=That Girl
TTITLE4=Because Of You
TTITLE5=Walk Away
TTITLE6=I Can Be The One
TTITLE7=Grass Is Greener
TTITLE8=Cancel
TTITLE9=Good Luck
TTITLE10=Can I Call You
TTITLE11=Love's A Game
TTITLE12=Tempted
TTITLE13=Actin Up 9feat Lil Fizz of B2K)
TTITLE14=Alone
TTITLE15=That Girl (Remix) (feat Pied Piper)
TTITLE16=Clubbin (Remix) (feat Joe Budden)
EXTD=www.RapMusicGuide.com\n
EXTT0=
EXTT1=
EXTT2=
EXTT3=
EXTT4=
EXTT5=
EXTT6=
EXTT7=
EXTT8=
EXTT9=
EXTT10=
EXTT11=
EXTT12=
EXTT13=
EXTT14=
EXTT15=
EXTT16=
PLAYORDER=
